<svg xmlns="http://www.w3.org/2000/svg" viewBox="0 0 355.39 355.39"><defs><style>.cls-1{fill:#e0e1e2}.cls-2{fill:#b88e69}.cls-2,.cls-4,.cls-5,.cls-6{fill-rule:evenodd}.cls-3{fill:#010101}.cls-4{fill:#ed2224}.cls-5,.cls-6{fill:none;stroke:#010101;stroke-width:6.24px}.cls-5{stroke-linecap:round}</style></defs><title>avatar-strokes</title><g id="Layer_2" data-name="Layer 2"><g id="Stroke"><g id="Layer_7" data-name="Layer 7"><path class="cls-1" d="M177.7 70a107.7 107.7 0 1 1-76.15 31.54A107 107 0 0 1 177.7 70m0-70a177.7 177.7 0 1 0 177.7 177.7A177.7 177.7 0 0 0 177.7 0z" id="_Group_" data-name="&amp;lt;Group&amp;gt;"/></g><path class="cls-2" d="M297.66 191.44a11.15 11.15 0 0 0-2.86.5c-8.08-55.94-38.28-156-120.16-156C91.9 35.9 65.8 135.53 59.39 191.64a12.76 12.76 0 0 0-1.66-.2c-7.07-.37-14.06 14.05-11.32 34.15s10.08 25.9 14.82 25.63A7.32 7.32 0 0 0 65 250c24.27 46 100.92 50.94 111.53 50.94s88.77-7.18 113.36-51.38a7.24 7.24 0 0 0 4.32 1.67c4.74.27 12.08-5.53 14.82-25.63s-4.29-34.53-11.37-34.16z" id="Layer_2-2" data-name="Layer 2"/><path class="cls-3" d="M231.84 244.11a3.05 3.05 0 0 0-2.39-1.05l-108.61 1.8a3.12 3.12 0 0 0-3 3.65c.24 1.39 6.44 34 57.21 36.78q2.55.14 5 .14c46.6 0 52.55-38.41 52.61-38.81a3.12 3.12 0 0 0-.82-2.51z" id="Layer_3" data-name="Layer 3"/><path class="cls-4" d="M210.72 273.33s-11.7-12.39-22.12-5.06c.25-.25-10.43-4.8-16 .51a45.83 45.83 0 0 0-8.9 12.64 93.93 93.93 0 0 0 25.18.76 44.46 44.46 0 0 0 21.84-8.85z" id="Layer_4" data-name="Layer 4"/><g id="Layer_5" data-name="Layer 5"><ellipse class="cls-3" cx="151.18" cy="201.76" rx="8.34" ry="19.74"/><ellipse class="cls-3" cx="199.68" cy="201.76" rx="8.34" ry="19.74"/></g><g id="Layer_6" data-name="Layer 6"><path class="cls-5" d="M291.12 196.56s-.52-4.74 6.55-5.11 14.06 14.05 11.33 34.14-10.08 25.9-14.82 25.63a7 7 0 0 1-5.54-3M64.28 196.56s.52-4.74-6.55-5.11-14.07 14.05-11.32 34.14 10.08 25.9 14.82 25.63a7 7 0 0 0 5.54-3"/><path class="cls-6" d="M289.86 249.55c-24.6 44.2-102.76 51.37-113.37 51.37S89.23 295.95 65 250M59.39 191.63C65.81 135.51 91.91 35.9 174.64 35.9c81.87 0 112.07 100.09 120.16 156"/></g></g></g></svg>